<svg xmlns="http://www.w3.org/2000/svg" viewBox="0 0 800 1000" width="800" height="1000" role="img">
  <defs>
    <linearGradient id="bg2" x1="0" y1="0" x2="0" y2="1">
      <stop offset="0" stop-color="#F0F1F4"/>
      <stop offset="1" stop-color="#DAD9E2"/>
    </linearGradient>
  </defs>
  <rect width="800" height="1000" fill="url(#bg2)"/>
  <g opacity="0.5"><line x1="100" y1="0" x2="100" y2="1000" stroke="rgba(11,11,11,0.05)" stroke-width="1"/><line x1="200" y1="0" x2="200" y2="1000" stroke="rgba(11,11,11,0.05)" stroke-width="1"/><line x1="300" y1="0" x2="300" y2="1000" stroke="rgba(11,11,11,0.05)" stroke-width="1"/><line x1="400" y1="0" x2="400" y2="1000" stroke="rgba(11,11,11,0.05)" stroke-width="1"/><line x1="500" y1="0" x2="500" y2="1000" stroke="rgba(11,11,11,0.05)" stroke-width="1"/><line x1="600" y1="0" x2="600" y2="1000" stroke="rgba(11,11,11,0.05)" stroke-width="1"/><line x1="700" y1="0" x2="700" y2="1000" stroke="rgba(11,11,11,0.05)" stroke-width="1"/><line x1="0" y1="100" x2="800" y2="100" stroke="rgba(11,11,11,0.05)" stroke-width="1"/><line x1="0" y1="200" x2="800" y2="200" stroke="rgba(11,11,11,0.05)" stroke-width="1"/><line x1="0" y1="300" x2="800" y2="300" stroke="rgba(11,11,11,0.05)" stroke-width="1"/><line x1="0" y1="400" x2="800" y2="400" stroke="rgba(11,11,11,0.05)" stroke-width="1"/><line x1="0" y1="500" x2="800" y2="500" stroke="rgba(11,11,11,0.05)" stroke-width="1"/><line x1="0" y1="600" x2="800" y2="600" stroke="rgba(11,11,11,0.05)" stroke-width="1"/><line x1="0" y1="700" x2="800" y2="700" stroke="rgba(11,11,11,0.05)" stroke-width="1"/><line x1="0" y1="800" x2="800" y2="800" stroke="rgba(11,11,11,0.05)" stroke-width="1"/><line x1="0" y1="900" x2="800" y2="900" stroke="rgba(11,11,11,0.05)" stroke-width="1"/></g>
  
    <g>
      <rect x="198" y="278" width="60" height="300" rx="30" fill="#AAB3C0" transform="rotate(7 250 290)"/>
      <rect x="542" y="278" width="60" height="300" rx="30" fill="#AAB3C0" transform="rotate(-7 550 290)"/>
      <rect x="286" y="610" width="90" height="338" rx="45" fill="#AAB3C0"/>
      <rect x="424" y="610" width="90" height="338" rx="45" fill="#AAB3C0"/>
      <path d="M 250,272
    C 250,342 248,432 258,506
    L 278,618
    L 522,618
    L 542,506
    C 552,432 550,342 550,272 Z" fill="#AAB3C0"/>
      <rect x="378" y="228" width="44" height="46" rx="16" fill="#9CA6B5"/>
      <circle cx="400" cy="170" r="66" fill="#9CA6B5"/>
      <rect x="376" y="612" width="14" height="120" fill="none"/>
    </g>
  <g opacity="0.55" fill="rgba(11,11,11,0.45)" font-family="sans-serif" font-size="22" font-weight="600">
    <text x="48" y="940">START</text>
  </g>
</svg>